<svg xmlns="http://www.w3.org/2000/svg" version="1.1" xmlns:xlink="http://www.w3.org/1999/xlink" xmlns:svgjs="http://svgjs.dev/svgjs" width="2000" height="313" viewBox="0 0 2000 313"><g transform="matrix(1,0,0,1,-1.2121212121212466,-0.7863896563277422)"><svg viewBox="0 0 396 62" data-background-color="#ffffff" preserveAspectRatio="xMidYMid meet" height="313" width="2000" xmlns="http://www.w3.org/2000/svg" xmlns:xlink="http://www.w3.org/1999/xlink"><g id="tight-bounds" transform="matrix(1,0,0,1,0.2400000000000091,0.15577047505533415)"><svg viewBox="0 0 395.52 61.68845904988933" height="61.68845904988933" width="395.52"><g><svg viewBox="0 0 395.52 61.68845904988933" height="61.68845904988933" width="395.52"><g><svg viewBox="0 0 395.52 61.68845904988933" height="61.68845904988933" width="395.52"><g id="textblocktransform"><svg viewBox="0 0 395.52 61.68845904988933" height="61.68845904988933" width="395.52" id="textblock"><g><svg viewBox="0 0 395.52 61.68845904988933" height="61.68845904988933" width="395.52"><g transform="matrix(1,0,0,1,0,0)"><svg width="395.52" viewBox="0.7 -33.1 293.62 45.800000000000004" height="61.68845904988933" data-palette-color="#bb84e8"><path d="M16.8 12.7L16.8 12.7Q15.55 12.7 14.28 12.1 13 11.5 12.13 10.5 11.25 9.5 11.25 8.35L11.25 8.35Q11.25 7.3 12.3 7.3L12.3 7.3Q12.5 7.3 12.68 7.33 12.85 7.35 13.05 7.4L13.05 7.4Q13.65 9.55 14.3 10.58 14.95 11.6 16.95 11.6L16.95 11.6Q20.05 11.6 23.73 7.35 27.4 3.1 32.05-5.2L32.05-5.2 41.05-21.25 35.85-15.7Q32.65-12.3 30.55-10.15 28.45-8 27.45-7L27.45-7Q25.65-5.2 23.9-3.65 22.15-2.1 20.43-1.15 18.7-0.2 16.9-0.2L16.9-0.2Q14.05-0.2 14.05-3.55L14.05-3.55Q14.05-7.55 17.45-11.8L17.45-11.8Q18.7-13.3 19.95-14.8 21.2-16.3 22.45-17.85L22.45-17.85Q26.5-22.95 28.4-26.2L28.4-26.2Q29.1-27.45 29.48-28.4 29.85-29.35 29.85-30.1L29.85-30.1Q29.85-31.2 28.9-31.73 27.95-32.25 25.85-32.25L25.85-32.25Q20.55-32.25 11.2-25.85L11.2-25.85Q9-24.4 7.05-22.3 5.1-20.2 3.9-17.9 2.7-15.6 2.7-13.45L2.7-13.45Q2.7-11.25 4.03-10.28 5.35-9.3 7.3-9.3L7.3-9.3Q9.85-9.3 12.95-11.5L12.95-11.5Q16.6-13.95 17.05-14.1L17.05-14.1Q16.55-12.25 13.1-10.05L13.1-10.05Q9.3-7.7 6-7.7L6-7.7Q3.4-7.7 2.05-9.5 0.7-11.3 0.7-13.7L0.7-13.7Q0.7-20.5 10.65-27.6L10.65-27.6Q12.65-29.05 15.48-30.3 18.3-31.55 21.25-32.33 24.2-33.1 26.55-33.1L26.55-33.1Q28.75-33.1 30.35-32.25 31.95-31.4 31.95-29.5L31.95-29.5Q31.95-27.2 29-22.65L29-22.65Q27.75-20.7 25.58-17.85 23.4-15 20.3-11.3L20.3-11.3Q19.05-9.85 18-7.5L18-7.5Q16.95-5.2 16.95-3.8L16.95-3.8Q16.95-2.45 18-2.45L18-2.45Q19.1-2.45 21.25-4L21.25-4Q27.35-8.35 33.8-14.95L33.8-14.95Q39.5-20.75 42.35-24.95L42.35-24.95Q44.4-27.9 46.7-27.9L46.7-27.9Q47.5-27.9 47.5-27.4L47.5-27.4Q47.5-27.3 47.48-27.2 47.45-27.1 47.4-27L47.4-27Q44.75-22.35 40.48-15.05 36.2-7.75 30.25 2.2L30.25 2.2Q28.6 4.9 26.4 7.3 24.2 9.7 21.75 11.2 19.3 12.7 16.8 12.7ZM47.45 0.25L47.45 0.25Q46.25 0.25 45.05-0.6 43.85-1.45 43.7-2.6L43.7-2.6Q43.2-6.45 48.55-11.75L48.55-11.75Q53.85-17.05 58.1-17.05L58.1-17.05Q59.25-17.05 59.9-16.5L59.9-16.5Q60.25-16.15 60.42-15.55 60.6-14.95 60.7-14.95L60.7-14.95Q60.9-14.95 61.05-15.03 61.2-15.1 61.4-15.1L61.4-15.1Q62-15.1 62.45-14.65 62.9-14.2 62.95-13.85L62.95-13.85Q63-13.75 59.75-8.9L59.75-8.9Q56.5-4.15 56.8-2.45L56.8-2.45Q57.05-1.3 57.9-1.3L57.9-1.3Q60.5-1.3 67.4-9.9L67.4-9.9Q67.55-10.1 67.7-10.1L67.7-10.1Q67.95-10.1 67.95-9.75L67.95-9.75Q67.95-9.35 67.5-8.75L67.5-8.75Q61.15-0.2 57.75-0.2L57.75-0.2Q57.3-0.2 56.9-0.35L56.9-0.35Q54.7-1.2 54.7-3.65L54.7-3.65Q54.7-4.5 54.9-5.35L54.9-5.35 51.8-2.35Q50.4-0.95 49.27-0.35 48.15 0.25 47.45 0.25ZM47-0.85L47-0.85Q49.9-0.85 54.9-7.2L54.9-7.2 60.2-14.5Q59.8-15.2 58.9-15.2L58.9-15.2Q55.85-15.2 50.65-10.3L50.65-10.3Q45.25-5.3 45.8-2.05L45.8-2.05Q46.05-0.85 47-0.85ZM70.45 0.1L70.45 0.1Q68.1 0.1 66.97-1.45 65.85-3 65.15-5.75L65.15-5.75Q64.25-4.85 63.9-4.85L63.9-4.85Q63.65-4.85 63.65-5.25L63.65-5.25Q63.65-5.55 63.9-5.8L63.9-5.8Q63.9-5.8 65.17-7.35 66.45-8.9 69.5-11.7L69.5-11.7 75.8-17.6Q77.1-18.85 77.87-19.5 78.65-20.15 79-20.15L79-20.15Q80.6-20.15 80.6-18.95L80.6-18.95Q80.6-18.35 79.95-17.55L79.95-17.55Q79.45-16.95 79.22-16.63 79-16.3 78.95-16.25L78.95-16.25Q78.05-14.7 77.3-10.7L77.3-10.7Q76.75-7.75 76.35-5.85 75.95-3.95 75.7-3.1L75.7-3.1Q77.8-3.15 79.85-4.4 81.9-5.65 84.25-8.5L84.25-8.5Q84.35-8.6 84.55-8.8 84.75-9 84.95-9L84.95-9Q85.25-9 85.25-8.75L85.25-8.75Q85.25-8.5 85.1-8.25 84.95-8 84.8-7.8L84.8-7.8Q83.25-5.95 81.9-4.78 80.55-3.6 79.05-2.93 77.55-2.25 75.5-1.8L75.5-1.8 73.9-0.75Q73.25-0.3 72.35-0.1 71.45 0.1 70.45 0.1ZM71.05-2.45L71.05-2.45Q72.2-2.45 72.95-3L72.95-3Q73.5-3.3 74.02-4.67 74.55-6.05 75.05-8.1L75.05-8.1Q75.45-9.85 75.67-11.53 75.9-13.2 76.1-14.75L76.1-14.75 76.3-16.45Q75.15-15.6 73.4-14 71.65-12.4 69.95-10.65L69.95-10.65Q68.25-8.9 67.75-8.08 67.25-7.25 67.2-6.85L67.2-6.85Q67-4.85 68.17-3.65 69.35-2.45 71.05-2.45ZM81.29 0.25L81.29 0.25Q79.84 0.25 79.84-0.6L79.84-0.6Q79.84-1.1 80.44-2.2L80.44-2.2Q82.74-6.3 84.57-9.47 86.39-12.65 87.79-14.85L87.79-14.85Q93.74-24.4 96.19-25.2L96.19-25.2Q96.29-25.2 96.34-25.23 96.39-25.25 96.44-25.25L96.44-25.25Q97.09-25.25 97.29-24.2L97.29-24.2Q97.14-23.15 92.09-16.6L92.09-16.6Q89.44-13.25 87.97-11.08 86.49-8.9 86.14-7.9L86.14-7.9Q87.79-9.1 89.69-10.45 91.59-11.8 93.39-13.03 95.19-14.25 96.64-15.03 98.09-15.8 98.89-15.9L98.89-15.9Q98.99-15.9 99.14-15.93 99.29-15.95 99.34-15.95L99.34-15.95Q100.74-15.95 100.74-14.65L100.74-14.65Q100.74-14.3 99.84-13.1 98.94-11.9 97.09-9.4L97.09-9.4Q93.79-5 93.79-2.8L93.79-2.8Q93.79-1.65 94.64-1.65L94.64-1.65Q95.54-1.7 96.72-2.45 97.89-3.2 99.09-4.3 100.29-5.4 101.27-6.48 102.24-7.55 102.74-8.15L102.74-8.15Q103.19-8.6 103.44-8.6L103.44-8.6Q103.64-8.6 103.64-8.4L103.64-8.4Q103.64-8 103.24-7.45L103.24-7.45Q102.64-6.7 101.47-5.5 100.29-4.3 98.92-3.08 97.54-1.85 96.32-1.03 95.09-0.2 94.49-0.2L94.49-0.2Q91.54-0.2 91.54-3.65L91.54-3.65Q91.54-5.6 93.34-8.75L93.34-8.75Q94.04-9.95 94.79-11.15 95.54-12.35 96.29-13.55L96.29-13.55Q89.89-10.35 84.69-4.1L84.69-4.1Q84.04-3.2 83.34-2.18 82.64-1.15 82.09-0.45 81.54 0.25 81.29 0.25ZM121.99 5.4L121.99 5.4Q118.09 5.4 115.79 3.58 113.49 1.75 113.49-1.7L113.49-1.7Q113.49-4.2 114.56-6.43 115.64-8.65 117.49-10.4 119.34-12.15 121.71-13.15 124.09-14.15 126.69-14.15L126.69-14.15Q129.34-14.15 130.86-12.95 132.39-11.75 132.39-9.7L132.39-9.7Q132.39-8.2 130.44-5.8L130.44-5.8Q128.49-3.4 128.49-4.2L128.49-4.2Q128.49-4.4 128.64-4.6L128.64-4.6Q130.24-6.95 130.24-9L130.24-9Q130.24-10.85 129.06-11.95 127.89-13.05 125.99-13.05L125.99-13.05Q123.89-13.05 121.96-12.03 120.04-11 118.54-9.3 117.04-7.6 116.19-5.55 115.34-3.5 115.34-1.5L115.34-1.5Q115.34 1.25 117.11 2.68 118.89 4.1 121.79 4.1L121.79 4.1Q124.74 4.1 127.46 3.03 130.19 1.95 132.34-0.05L132.34-0.05Q134.89-2.45 137.49-7.05L137.49-7.05 141.84-14.9Q143.54-17.6 145.39-21.43 147.24-25.25 149.29-30.2L149.29-30.2Q142.09-30.3 135.29-28.8L135.29-28.8Q128.04-27.25 124.54-24.5L124.54-24.5Q123.04-23.4 123.04-22.2L123.04-22.2Q123.04-21.15 124.21-20.48 125.39-19.8 127.19-19.8L127.19-19.8Q128.24-19.8 129.69-20.1 131.14-20.4 132.49-20.93 133.84-21.45 134.54-22.1L134.54-22.1Q135.04-22.5 135.24-22.5L135.24-22.5Q135.64-22.5 135.39-22.1L135.39-22.1Q134.34-20.85 132.66-20 130.99-19.15 129.14-18.73 127.29-18.3 125.69-18.3L125.69-18.3Q123.24-18.3 121.86-19.28 120.49-20.25 120.49-21.8L120.49-21.8Q120.49-23.6 122.29-25.3L122.29-25.3Q125.69-28.6 134.44-30.2L134.44-30.2Q137.84-30.8 141.74-31.08 145.64-31.35 150.04-31.3L150.04-31.3Q151.14-32.25 152.14-32.25L152.14-32.25Q153.14-32.25 152.89-31.2L152.89-31.2Q156.04-31 159.26-30.4 162.49-29.8 165.16-28.73 167.84-27.65 169.49-26.08 171.14-24.5 171.14-22.35L171.14-22.35Q171.14-20.05 169.61-17.98 168.09-15.9 165.71-14.3 163.34-12.7 160.74-11.75L160.74-11.75Q158.34-10.9 155.61-10.4 152.89-9.9 150.24-9.9L150.24-9.9Q148.24-9.9 146.41-10.2 144.59-10.5 143.09-11.15L143.09-11.15Q140.04-6.7 138.01-3.9 135.99-1.1 134.89 0L134.89 0Q129.49 5.4 121.99 5.4ZM148.99-11.1L148.99-11.1Q150.84-11.1 152.66-11.48 154.49-11.85 156.59-12.5L156.59-12.5Q158.69-13.2 160.84-14.28 162.99-15.35 164.79-16.73 166.59-18.1 167.69-19.68 168.79-21.25 168.79-22.85L168.79-22.85Q168.79-24.65 167.29-25.98 165.79-27.3 163.34-28.15 160.89-29 158.04-29.48 155.19-29.95 152.54-30.1L152.54-30.1 150.94-25.1Q150.09-22.95 148.54-20.1 146.99-17.25 144.74-13.7L144.74-13.7 143.64-12Q143.99-11.8 144.41-11.68 144.84-11.55 145.34-11.45L145.34-11.45Q146.29-11.25 147.19-11.18 148.09-11.1 148.99-11.1ZM167.54 0.25L167.54 0.25Q166.34 0.25 165.14-0.6 163.94-1.45 163.79-2.6L163.79-2.6Q163.29-6.45 168.64-11.75L168.64-11.75Q173.94-17.05 178.19-17.05L178.19-17.05Q179.34-17.05 179.99-16.5L179.99-16.5Q180.34-16.15 180.51-15.55 180.69-14.95 180.79-14.95L180.79-14.95Q180.99-14.95 181.14-15.03 181.29-15.1 181.49-15.1L181.49-15.1Q182.09-15.1 182.54-14.65 182.99-14.2 183.04-13.85L183.04-13.85Q183.09-13.75 179.84-8.9L179.84-8.9Q176.59-4.15 176.89-2.45L176.89-2.45Q177.14-1.3 177.99-1.3L177.99-1.3Q180.59-1.3 187.49-9.9L187.49-9.9Q187.64-10.1 187.79-10.1L187.79-10.1Q188.04-10.1 188.04-9.75L188.04-9.75Q188.04-9.35 187.59-8.75L187.59-8.75Q181.24-0.2 177.84-0.2L177.84-0.2Q177.39-0.2 176.99-0.35L176.99-0.35Q174.79-1.2 174.79-3.65L174.79-3.65Q174.79-4.5 174.99-5.35L174.99-5.35 171.89-2.35Q170.49-0.95 169.36-0.35 168.24 0.25 167.54 0.25ZM167.09-0.85L167.09-0.85Q169.99-0.85 174.99-7.2L174.99-7.2 180.29-14.5Q179.89-15.2 178.99-15.2L178.99-15.2Q175.94-15.2 170.74-10.3L170.74-10.3Q165.34-5.3 165.89-2.05L165.89-2.05Q166.14-0.85 167.09-0.85ZM187.88 0.3L187.88 0.3Q186.28 0.3 185.36-0.48 184.43-1.25 184.43-3.25L184.43-3.25Q184.43-4.4 185.13-6.18 185.83-7.95 186.88-10 187.93-12.05 188.98-14.05L188.98-14.05Q188.33-13.9 187.83-13.9L187.83-13.9Q186.33-13.9 186.33-15.05L186.33-15.05Q186.33-15.6 186.76-15.9 187.18-16.2 187.53-16.25L187.53-16.25Q187.53-16.25 187.66-16.25 187.78-16.25 187.98-16.3L187.98-16.3 190.88-16.3Q191.78-17.45 192.73-18.75L192.73-18.75Q194.08-20.45 194.88-20.75L194.88-20.75 195.03-20.75Q195.38-20.75 196.03-20.4L196.03-20.4Q196.83-19.95 196.83-19.5L196.83-19.5Q196.83-18.85 194.43-16.15L194.43-16.15Q194.88-16.1 195.73-16.1 196.58-16.1 197.83-16.1L197.83-16.1Q198.43-16.1 199.56-16.1 200.68-16.1 201.91-16.13 203.13-16.15 204.03-16.18 204.93-16.2 205.03-16.2L205.03-16.2Q205.18-16.15 205.18-16.05L205.18-16.05Q205.18-15.6 199.28-14.85L199.28-14.85Q195.93-14.4 194.16-14.15 192.38-13.9 192.23-13.85L192.23-13.85Q191.53-13.25 190.53-11.8 189.53-10.35 188.53-8.55 187.53-6.75 186.86-5.13 186.18-3.5 186.18-2.6L186.18-2.6Q186.18-1.8 186.78-1.28 187.38-0.75 188.73-0.75L188.73-0.75Q189.63-0.75 190.88-1.15 192.13-1.55 193.26-2.08 194.38-2.6 194.88-2.9L194.88-2.9Q196.18-3.7 197.76-5.03 199.33-6.35 200.88-8.05L200.88-8.05Q201.58-8.75 201.83-8.75L201.83-8.75Q201.98-8.75 201.98-8.55L201.98-8.55Q201.98-8.15 201.23-7.25L201.23-7.25Q200.03-5.8 198.56-4.48 197.08-3.15 195.28-2.05L195.28-2.05Q193.23-0.8 191.36-0.25 189.48 0.3 187.88 0.3ZM198.28 0.25L198.28 0.25Q196.83 0.25 196.83-0.6L196.83-0.6Q196.83-1.1 197.43-2.2L197.43-2.2Q199.73-6.3 201.56-9.47 203.38-12.65 204.78-14.85L204.78-14.85Q210.73-24.4 213.18-25.2L213.18-25.2Q213.28-25.2 213.33-25.23 213.38-25.25 213.43-25.25L213.43-25.25Q214.08-25.25 214.28-24.2L214.28-24.2Q214.13-23.15 209.08-16.6L209.08-16.6Q206.43-13.25 204.96-11.08 203.48-8.9 203.13-7.9L203.13-7.9Q204.78-9.1 206.68-10.45 208.58-11.8 210.38-13.03 212.18-14.25 213.63-15.03 215.08-15.8 215.88-15.9L215.88-15.9Q215.98-15.9 216.13-15.93 216.28-15.95 216.33-15.95L216.33-15.95Q217.73-15.95 217.73-14.65L217.73-14.65Q217.73-14.3 216.83-13.1 215.93-11.9 214.08-9.4L214.08-9.4Q210.78-5 210.78-2.8L210.78-2.8Q210.78-1.65 211.63-1.65L211.63-1.65Q212.53-1.7 213.71-2.45 214.88-3.2 216.08-4.3 217.28-5.4 218.26-6.48 219.23-7.55 219.73-8.15L219.73-8.15Q220.18-8.6 220.43-8.6L220.43-8.6Q220.63-8.6 220.63-8.4L220.63-8.4Q220.63-8 220.23-7.45L220.23-7.45Q219.63-6.7 218.46-5.5 217.28-4.3 215.91-3.08 214.53-1.85 213.31-1.03 212.08-0.2 211.48-0.2L211.48-0.2Q208.53-0.2 208.53-3.65L208.53-3.65Q208.53-5.6 210.33-8.75L210.33-8.75Q211.03-9.95 211.78-11.15 212.53-12.35 213.28-13.55L213.28-13.55Q206.88-10.35 201.68-4.1L201.68-4.1Q201.03-3.2 200.33-2.18 199.63-1.15 199.08-0.45 198.53 0.25 198.28 0.25ZM221.78 0.25L221.78 0.25Q220.58 0.25 219.38-0.6 218.18-1.45 218.03-2.6L218.03-2.6Q217.53-6.45 222.88-11.75L222.88-11.75Q228.18-17.05 232.43-17.05L232.43-17.05Q233.58-17.05 234.23-16.5L234.23-16.5Q234.58-16.15 234.75-15.55 234.93-14.95 235.03-14.95L235.03-14.95Q235.23-14.95 235.38-15.03 235.53-15.1 235.73-15.1L235.73-15.1Q236.33-15.1 236.78-14.65 237.23-14.2 237.28-13.85L237.28-13.85Q237.33-13.75 234.08-8.9L234.08-8.9Q230.83-4.15 231.13-2.45L231.13-2.45Q231.38-1.3 232.23-1.3L232.23-1.3Q234.83-1.3 241.73-9.9L241.73-9.9Q241.88-10.1 242.03-10.1L242.03-10.1Q242.28-10.1 242.28-9.75L242.28-9.75Q242.28-9.35 241.83-8.75L241.83-8.75Q235.48-0.2 232.08-0.2L232.08-0.2Q231.63-0.2 231.23-0.35L231.23-0.35Q229.03-1.2 229.03-3.65L229.03-3.65Q229.03-4.5 229.23-5.35L229.23-5.35 226.13-2.35Q224.73-0.95 223.6-0.35 222.48 0.25 221.78 0.25ZM221.33-0.85L221.33-0.85Q224.23-0.85 229.23-7.2L229.23-7.2 234.53-14.5Q234.13-15.2 233.23-15.2L233.23-15.2Q230.18-15.2 224.98-10.3L224.98-10.3Q219.58-5.3 220.13-2.05L220.13-2.05Q220.38-0.85 221.33-0.85ZM251.78 0.1L251.78 0.1Q250.43 0.1 249.88-0.68 249.33-1.45 249.33-2.6L249.33-2.6Q249.33-5.5 251.33-8.8L251.33-8.8 254.53-14Q251.13-11.5 247.78-7.75L247.78-7.75Q246.88-6.75 245.75-5.4 244.63-4.05 243.28-2.3L243.28-2.3Q241.48 0.05 241.13 0.05L241.13 0.05Q240.43 0.05 239.98-0.58 239.53-1.2 239.53-1.7L239.53-1.7Q239.53-2.1 239.78-3.18 240.03-4.25 240.38-5.05L240.38-5.05Q240.73-5.9 241.1-6.73 241.48-7.55 241.83-8.35L241.83-8.35 238.83-5.2Q238.73-5.1 238.23-4.6 237.73-4.1 237.43-4.1L237.43-4.1Q237.18-4.1 237.18-4.45L237.18-4.45Q237.18-4.55 237.25-4.73 237.33-4.9 237.58-5.15L237.58-5.15Q238.33-5.9 239.13-6.75 239.93-7.6 240.78-8.7L240.78-8.7Q241.23-9.25 242.13-10.38 243.03-11.5 244.1-12.8 245.18-14.1 246.13-15.2L246.13-15.2Q246.38-15.55 246.68-15.68 246.98-15.8 247.08-15.8L247.08-15.8Q248.43-15.8 248.43-14.75L248.43-14.75Q248.43-14.45 248.28-14.15L248.28-14.15Q243.78-7.95 242.88-4.7L242.88-4.7Q248.68-10.5 252.2-13.43 255.73-16.35 257.23-16.35L257.23-16.35Q258.03-16.35 258.45-16.1 258.88-15.85 258.88-15.15L258.88-15.15Q258.88-14.9 258.83-14.75L258.83-14.75Q258.68-14.4 256.78-11.95L256.78-11.95Q255.63-10.55 254.75-9.4 253.88-8.25 253.33-7.4L253.33-7.4Q252.43-6 251.98-4.78 251.53-3.55 251.53-2.7L251.53-2.7Q251.53-2.35 251.63-1.85 251.73-1.35 252.23-1.35L252.23-1.35Q253.38-1.35 255.83-3.35L255.83-3.35Q256.98-4.35 257.98-5.38 258.98-6.4 259.88-7.4L259.88-7.4Q260.08-7.6 260.53-8.18 260.98-8.75 261.08-8.75L261.08-8.75Q261.28-8.75 261.28-8.35L261.28-8.35Q261.28-8.15 261.05-7.68 260.83-7.2 260.58-6.95L260.58-6.95Q260.03-6.3 258.95-5.15 257.88-4 256.55-2.8 255.23-1.6 253.98-0.75 252.73 0.1 251.78 0.1ZM270.22-17.2L270.22-17.2Q269.37-17.2 268.75-17.75 268.12-18.3 268.12-19L268.12-19Q268.12-20.4 270.02-20.4L270.02-20.4Q270.72-20.4 271.42-19.93 272.12-19.45 272.12-18.75L272.12-18.75Q272.12-18.15 271.47-17.68 270.82-17.2 270.22-17.2ZM260.97 0.55L260.97 0.55Q259.87 0.55 259.15-0.18 258.42-0.9 258.42-2.75L258.42-2.75Q258.42-3.8 258.9-5.18 259.37-6.55 260.1-7.95 260.82-9.35 261.52-10.45L261.52-10.45Q264.32-15 266.12-15.05L266.12-15.05Q266.57-15.05 267.22-14.68 267.87-14.3 267.87-13.85L267.87-13.85Q267.87-13.85 264.07-8.95L264.07-8.95Q260.32-4.1 260.32-2.05L260.32-2.05Q260.32-0.45 261.57-0.45L261.57-0.45Q262.37-0.45 263.65-1.13 264.92-1.8 266.32-2.85 267.72-3.9 269-5.1 270.27-6.3 271.07-7.3L271.07-7.3Q271.57-7.95 271.95-8.2 272.32-8.45 272.42-8.45L272.42-8.45Q272.62-8.45 272.62-8.15L272.62-8.15Q272.62-7.9 272.05-7.15 271.47-6.4 270.47-5.4L270.47-5.4Q269.27-4.2 267.82-2.8 266.37-1.4 264.67-0.43 262.97 0.55 260.97 0.55ZM273.82 0.25L273.82 0.25Q272.62 0.25 271.42-0.6 270.22-1.45 270.07-2.6L270.07-2.6Q269.57-6.45 274.92-11.75L274.92-11.75Q280.22-17.05 284.47-17.05L284.47-17.05Q285.62-17.05 286.27-16.5L286.27-16.5Q286.62-16.15 286.8-15.55 286.97-14.95 287.07-14.95L287.07-14.95Q287.27-14.95 287.42-15.03 287.57-15.1 287.77-15.1L287.77-15.1Q288.37-15.1 288.82-14.65 289.27-14.2 289.32-13.85L289.32-13.85Q289.37-13.75 286.12-8.9L286.12-8.9Q282.87-4.15 283.17-2.45L283.17-2.45Q283.42-1.3 284.27-1.3L284.27-1.3Q286.87-1.3 293.77-9.9L293.77-9.9Q293.92-10.1 294.07-10.1L294.07-10.1Q294.32-10.1 294.32-9.75L294.32-9.75Q294.32-9.35 293.87-8.75L293.87-8.75Q287.52-0.2 284.12-0.2L284.12-0.2Q283.67-0.2 283.27-0.35L283.27-0.35Q281.07-1.2 281.07-3.65L281.07-3.65Q281.07-4.5 281.27-5.35L281.27-5.35 278.17-2.35Q276.77-0.95 275.65-0.35 274.52 0.25 273.82 0.25ZM273.37-0.85L273.37-0.85Q276.27-0.85 281.27-7.2L281.27-7.2 286.57-14.5Q286.17-15.2 285.27-15.2L285.27-15.2Q282.22-15.2 277.02-10.3L277.02-10.3Q271.62-5.3 272.17-2.05L272.17-2.05Q272.42-0.85 273.37-0.85Z" opacity="1" transform="matrix(1,0,0,1,0,0)" fill="#bb84e8" class="wordmark-text-0" data-fill-palette-color="primary" id="text-0"></path></svg></g></svg></g></svg></g></svg></g></svg></g><defs></defs></svg><rect width="395.52" height="61.68845904988933" fill="none" stroke="none" visibility="hidden"></rect></g></svg></g></svg>